<?xml version="1.0" encoding="utf-8"?>
<!-- Generator: Adobe Illustrator 25.4.1, SVG Export Plug-In . SVG Version: 6.00 Build 0)  -->
<svg version="1.0" id="Layer_1" xmlns="http://www.w3.org/2000/svg" xmlns:xlink="http://www.w3.org/1999/xlink" x="0px" y="0px"
	 viewBox="0 0 875.2 564.8" style="enable-background:new 0 0 875.2 564.8;" xml:space="preserve">
<style type="text/css">
	.st0{fill:#30165D;}
</style>
<path class="st0" d="M320.9,309c0,1.1-0.5,1.5-2,1.5c-1.8,0-1.8-17.9-23.3-17.9c-7.6,0-18.4,5-18.4,25.7c0,11.2,5.8,26.1,19,26.1
	c14.8,0,15-6.9,15-11.7c0-12.7-9.7-7.2-9.7-10.4c0-2.4,2.7-1.7,4.1-1.7c3.9,0,7.6,0.3,11.5,0.3c3,0,5.9-0.3,8.9-0.3
	c0.4,0,0.9,0.3,0.9,1.2c0,3.5-5.7-0.9-5.7,9.6c0,3.3,0.2,5.7,0.2,6.8s-0.1,1.7-0.9,2.1c-7.8,4.3-16.9,8-25.8,8
	c-24,0-27.7-21-27.7-27.5c0-13.8,8.5-31.9,29.1-31.9c11.3,0,18.3,5.4,20.4,5.4c1.8,0,1.9-2.2,3.3-2.2c1.2,0,1.2,1.8,1.2,3.1
	L320.9,309L320.9,309z"/>
<path class="st0" d="M336.4,300.3c0-9.2-8.9-6.1-8.9-9.1c0-0.9,0.9-1.2,1.8-1.2c3.7,0,4.4,0.3,9.6,0.3c5.5,0,11-0.3,16.6-0.3
	c18,0,19.6,11.5,19.6,15.3c0.1,4-1.6,7.8-4.7,10.3c-2.4,1.9-4.7,2.7-4.7,3.4c0,0.5,7,12.4,12.8,22.7c0.7,0.9,1.8,1.4,3,1.3
	c0.9,0,1.6-0.5,2.5-0.5c0.6,0,1.1,0.4,1.2,1.1c0,0,0,0.1,0,0.1c0,2.6-5.5,4.4-8.7,4.4c-6.4,0-9.1-5.1-11.7-10l-6.9-12.9
	c-1.9-3.6-3.3-4.4-7.5-4.4c-4.4,0-3.9,0.5-3.9,3.4v14.1c0,8.8,8.1,5.5,8.1,8.3c0,0.8-0.6,1.2-2.6,1.2c-1.4,0-3.6-0.3-7.1-0.3
	c-4.4,0-8.6,0.3-12.6,0.3c-0.9,0-2.7,0.2-2.7-1.4c0-2.6,6.6,0.1,6.6-10.3v-35.8H336.4z M346.4,314.9c0,2,3,2,5.5,2
	c12.4,0,13-4.6,13-9.4c0-8-4.6-14.1-12.8-14.1c-3,0-5.6,0-5.6,4.9L346.4,314.9L346.4,314.9z"/>
<path class="st0" d="M405.4,311c0,3.5,0,4.1,3.5,4.1h5.1c7.1,0,7.3-7.5,8.9-7.5c0.5,0,1.5-0.1,1.6,2l0.5,14.5
	c0.1,1.1,0.5,4.1-1.4,4.1c-2.7,0-0.3-8.7-8.9-8.7h-6.1c-3.7,0-3.4,1-3.4,5.8v10.5c0,5.1-0.3,8,5.6,8c20.3,0,19.1-10.7,22.3-10.7
	c0.3,0,0.9,0.2,0.9,1.8c0,6.4-4.8,13.2-11.5,13.2c-12.4,0-17.3-0.3-21.5-0.3c-2.6,0-6,0.3-10.5,0.3c-1.1,0-1.6-0.4-1.6-0.9
	c0-3.7,6.2,0.6,6.2-9.3v-38.3c0-7.4-9.2-4.7-9.2-8c0-0.8,0.6-1.4,1.8-1.4c3.3,0,9.3,0.3,21.8,0.3c5.8,0,11.5-0.3,18.7-0.3
	c0.9,0,1.6,0.7,1.6,1.5c0,0,0,0,0,0.1l0.3,8.1c0.1,1.1,0.5,3.7-1.4,3.7c-3.9,0,2.6-9.6-13.3-9.6c-10,0-10.3,0.1-10.3,5.8V311
	L405.4,311z"/>
<path class="st0" d="M457.3,311c0,3.5,0,4.1,3.5,4.1h5.1c7.1,0,7.3-7.5,8.9-7.5c0.5,0,1.5-0.1,1.6,2l0.5,14.5
	c0.1,1.1,0.5,4.1-1.4,4.1c-2.6,0-0.3-8.7-8.9-8.7h-6.1c-3.7,0-3.4,1-3.4,5.8v10.5c0,5.1-0.3,8,5.6,8c20.3,0,19.1-10.7,22.2-10.7
	c0.3,0,0.9,0.2,0.9,1.8c0,6.4-4.8,13.2-11.5,13.2c-12.4,0-17.3-0.3-21.5-0.3c-2.6,0-6,0.3-10.5,0.3c-1.1,0-1.6-0.4-1.6-0.9
	c0-3.7,6.2,0.6,6.2-9.3v-38.3c0-7.4-9.3-4.7-9.3-8c0-0.8,0.6-1.4,1.8-1.4c3.3,0,9.3,0.3,21.8,0.3c5.8,0,11.5-0.3,18.7-0.3
	c0.9,0,1.6,0.7,1.6,1.5c0,0,0,0,0,0.1l0.3,8.1c0.1,1.1,0.5,3.7-1.4,3.7c-3.9,0,2.6-9.6-13.3-9.6c-10,0-10.3,0.1-10.3,5.8V311
	L457.3,311z"/>
<path class="st0" d="M498.9,305.6c0-15.7-9.2-10.4-9.2-14.3c-0.1-0.7,0.5-1.3,1.2-1.4c0.1,0,0.1,0,0.2,0c1.6,0,3,0.3,4.6,0.3
	c2.1,0,4.3-0.3,8.6-0.3c2.6,0,1.6,0.5,3.1,2.1l32.9,36.2c1.1,1.2,2,2.1,2.6,2.1c0.6,0,0.6-1,0.6-3v-27.3c0-7.5-10-6-10-8.7
	c-0.1-0.7,0.4-1.3,1.1-1.4c0.1,0,0.1,0,0.2,0c1.3,0,3.6,0.3,9.3,0.3c5.1,0,8-0.3,8.8-0.3c1.6,0,1.6,0.9,1.6,1.1c0,2.5-7,0.5-7,9.1
	v46c0,1.8,0,2.5-1,2.5c-1.2,0-1.5-0.5-2.1-1.2L505,304.9c-0.5-0.6-1.1-1.1-1.5-1.1s-0.6,0.5-0.6,1.3v27.8c0,15.7,10.5,10.2,10.5,14
	c0,1.2-2,1.1-3.1,1.1c-4.1,0-6.9-0.3-9.6-0.3s-4.8,0.3-7.1,0.3c-0.9,0-2.6,0.4-2.6-1c0-3.3,7.8-1.8,7.8-10.2L498.9,305.6z"/>
<path class="st0" d="M587.8,331.7c0.4,1.2,0.6,2.2,1.2,2.2c0.4,0,0.8-0.3,0.8-0.8l8.6-18.2c0.6-1.1,1-2.2,1.3-3.3
	c-0.3-1.4-0.7-2.8-1.3-4.2l-4.1-11.8c-1.4-3.9-5.7-2.4-5.7-4.5c0-1,1.2-1.3,1.7-1.3c1.3,0,3,0.3,8,0.3c7.2,0,8.5-0.3,9.7-0.3
	c0.8,0,1.9,0.1,1.9,1.1c0,2.6-4.6,1.6-4.6,4.6c0.2,1.4,0.5,2.8,1,4.1l9.5,28.7c0.8,2.2,1.2,4.4,1.9,4.4c0.3,0,0.9-1.6,1.8-4.3
	l8.3-24.3c0.6-2.1,0.9-4.2,0.8-6.3c0-6.3-7.5-4.3-7.5-6.4c0-1,0.4-1.6,2-1.6c0.8,0,4.1,0.3,6.7,0.3c5.3,0,6.1-0.3,7.7-0.3
	c0.6,0,1.5,0.1,1.5,1c0,1.9-2.6,0.4-4.6,5.9l-18.4,50.8c-0.4,1.2-0.7,1.6-1.7,1.6s-1.4-0.6-2-2.5l-10.5-28.9c0-0.3-0.3-0.6-0.6-0.5
	c0,0,0,0,0,0c-0.4,0-0.5,0.3-0.6,0.5l-14,29.7c-0.4,1.2-0.8,1.6-1.7,1.6s-1.4-0.6-2-2.5l-18.2-50.9c-1.4-3.9-5.7-2.4-5.7-4.5
	c0-1,1.2-1.3,1.7-1.3c1.3,0,3,0.3,8,0.3c7.2,0,8.5-0.3,9.7-0.3c0.7,0,1.9,0.1,1.9,1.1c0,2.6-4.6,1.6-4.6,4.6c0.2,1.4,0.5,2.8,1,4.1
	L587.8,331.7z"/>
<path class="st0" d="M662.8,337.7c0,10.1,9.2,6.3,9.2,8.9c0,0.9-0.8,1.2-2.6,1.2c-3,0-6.1-0.3-12.4-0.3c-3.5,0-7.1,0.3-9.2,0.3
	c-0.8,0-0.9-0.5-0.9-1c0-2.9,5.9-0.8,5.9-8.6V299c0-7.5-9.2-5.1-9.2-8c0-1.4,2-1.2,2.8-1.2c3.2,0,6.4,0.3,9.3,0.3s5.9-0.3,10.6-0.3
	c2.5,0,2.9,0.2,2.9,1.2c0,2.8-6.1-0.2-6.1,7.6v39.2L662.8,337.7z"/>
<path class="st0" d="M727.2,307.5c0.1,0.9,0.4,2.7-1,2.7s-1.9-1.7-2.5-2.8c-4.1-7.8-11.3-15-20.8-15c-12.1,0-18.6,11.4-18.6,22.5
	c0,11.6,6.5,27.8,22.1,27.8c12.7,0,18.3-10.7,20.4-10.7c0.4,0,1.2,0.4,1.2,0.9c0,3.3-8.7,15.6-26.1,15.6c-24,0-27.7-21-27.7-27.5
	c0-13.8,8.5-31.9,29.1-31.9c10,0,16.3,5,18.7,5c1.5,0,1.6-2.7,2.8-2.7c0.4,0,1,0.1,1,0.5L727.2,307.5z"/>
<path class="st0" d="M790.4,336.3c0,10.4,8.6,7.4,8.6,10.6c0,1.1-0.6,1-1.7,1c-2.7,0-7.5-0.3-10.9-0.3c-3,0-6.1,0.3-10.3,0.3
	c-1.2,0-1.6-0.3-1.6-0.9c0-2.9,6-0.6,6-8.6v-14.8c0-3.4,0.2-4.4-3.3-4.4h-21.8c-3.7,0-4.1,0.9-4.1,4.4v12.8
	c0,10.2,10.2,7.2,10.2,10.2c0,0.5,0.2,1.2-2.5,1.2c-3.3,0-6.1-0.3-12-0.3c-3.4,0-6.8,0.3-11,0.3c-1,0-1.8-0.2-1.8-1.2
	c0-3.3,7-0.3,7-10.5v-36.6c0-8.9-9.3-5.3-9.3-8.5c0-1.3,2.5-1.3,4-1.3c2.5,0,4.9,0.3,9.2,0.3c4.9,0,8.2-0.3,10.6-0.3
	c1.2,0,1.9,0.4,1.9,1.2c0,2.6-6.3,0.2-6.3,7.5v13.1c0,2.2,0.3,3.3,2,3.3h24.3c2.3,0,2.9-1.9,2.9-3.6v-11.6c0-9-9-6.1-9-8.5
	c0-1.5,0.8-1.3,1.9-1.3c3.3,0,5.5,0.3,10.6,0.3c4.3,0,7.3-0.3,10.8-0.3c1.4,0,1.7,0.2,1.7,1c0,3.1-5.9-0.4-5.9,7.6L790.4,336.3
	L790.4,336.3z"/>
<path class="st0" d="M320.3,242.9c0,15-4.2,27.5-24.6,27.5c-13.8,0-21.1-6.4-21.1-20.8v-24.2c0-6.3-7.7-4-7.7-6.8c0-1,1-1.2,1.6-1.2
	c1,0,6.5,0.3,10.2,0.3s9-0.3,10.4-0.3c0.6,0,0.9,0.5,0.9,1.1c0,2.5-6.2-1.4-6.2,10.7v16c0,11.3,3,20.8,16.1,20.8
	c14.8,0,16.7-11.7,16.7-24.2v-14.7c0-8.5-9.1-6.2-9.1-8.9c0-1.2,1.3-0.9,2.2-0.9c2.1,0.1,4.2,0.3,6.2,0.3c2.5,0,4.7-0.1,8.4-0.3
	c0.9,0,1.3,0.1,1.3,1c0,2-5.1-0.6-5.1,7.7V243L320.3,242.9z"/>
<path class="st0" d="M337.2,231.7c0-14.2-8.2-9.4-8.2-13c-0.1-0.6,0.4-1.2,1-1.3c0.1,0,0.2,0,0.2,0c1.4,0,2.8,0.3,4.2,0.3
	c1.9,0,3.9-0.3,7.8-0.3c2.4,0,1.5,0.5,2.8,1.9l29.7,32.6c1,1.1,1.8,1.9,2.2,1.9s0.6-0.9,0.6-2.8v-24.6c0-6.7-9-5.4-9-7.8
	c-0.1-0.6,0.4-1.2,1-1.3c0.1,0,0.1,0,0.2,0c1.2,0,3.3,0.3,8.5,0.3c4.7,0,7.3-0.3,7.9-0.3c1.4,0,1.4,0.8,1.4,1c0,2.2-6.3,0.4-6.3,8.2
	v41.5c0,1.6,0,2.2-0.9,2.2c-0.8,0-1.5-0.4-1.9-1.1L343,231c-0.5-0.6-1-1-1.3-1s-0.6,0.5-0.6,1.2v25.2c0,14.2,9.4,9.2,9.4,12.6
	c0,1.1-1.8,1-2.8,1c-3.6,0-6.1-0.3-8.8-0.3c-2.4,0-4.4,0.3-6.3,0.3c-0.9,0-2.2,0.4-2.2-0.9c0-3,7.1-1.6,7.1-9.2v-28.2H337.2z"/>
<path class="st0" d="M409,260.7c0,9.1,8.2,5.7,8.2,8c0,0.9-0.6,1.1-2.4,1.1c-2.8,0-5.5-0.3-11.2-0.3c-3.2,0-6.3,0.3-8.2,0.3
	c-0.5,0-0.8-0.4-0.9-0.8c0,0,0,0,0,0c0-2.6,5.4-0.6,5.4-7.7v-35.4c0-6.7-8.3-4.7-8.3-7.3c0-1.3,1.8-1.1,2.6-1.1
	c2.9,0,5.8,0.3,8.4,0.3s5.4-0.3,9.5-0.3c2.2,0,2.6,0.1,2.6,1.1c0,2.5-5.6-0.1-5.6,6.9V260.7z"/>
<path class="st0" d="M448.1,268.7c-0.9,1.9-1.2,2.4-2,2.4s-1.5-0.8-2.8-3.9l-18.4-43c-1.3-2.9-2.2-3.8-5.4-4.4
	c-0.2-0.1-1.2-0.5-1.2-1.1c0-1.8,2.2-1.2,3.4-1.2c2.5,0,4.9,0.3,7.5,0.3c4.7,0,6.8-0.3,8-0.3c2.4,0,2.8-0.1,2.8,1.2
	c0,2-4.4,0.9-4.4,4c0,2.2,1,5.7,2.8,10.2l9.6,23.9c0.2,0.5,0.6,1.5,1.1,1.5s0.8-1.1,1-1.5l10.2-22.5c2.2-4.9,2.4-7.5,2.4-8.8
	c0-7-7.5-4.2-7.5-6.8c0-1.4,2.1-1.2,3-1.2c2.1,0,4.2,0.3,6.3,0.3s4.2-0.3,6.2-0.3c1.6,0,2.6-0.2,2.6,1.1c0,1.7-3,1.3-5,5.7
	L448.1,268.7z"/>
<path class="st0" d="M493.9,236.5c0,3.2,0,3.8,3.2,3.8h4.7c6.3,0,6.6-6.9,8-6.9c0.5,0,1.3-0.1,1.4,1.8l0.5,13.2
	c0.1,1,0.5,3.6-1.3,3.6c-2.4,0-0.3-7.8-8-7.8H497c-3.4,0-3.1,0.9-3.1,5.1v9.4c0,4.6-0.3,7.3,5,7.3c18.3,0,17.3-9.7,20.1-9.7
	c0.3,0,0.8,0.2,0.8,1.6c0,5.8-4.4,11.9-10.5,11.9c-11.2,0-15.6-0.3-19.4-0.3c-2.2,0-5.4,0.3-9.4,0.3c-1,0-1.4-0.3-1.4-0.9
	c0-3.4,5.7,0.6,5.7-8.5V226c0-6.6-8.4-4.3-8.4-7.3c0.1-0.8,0.8-1.4,1.6-1.3c3,0,8.3,0.3,19.7,0.3c5.2,0,10.4-0.3,16.9-0.3
	c0.8,0,1.5,0.6,1.5,1.4c0,0,0,0,0,0l0.3,7.3c0.1,1,0.4,3.4-1.3,3.4c-3.4,0,2.2-8.7-12-8.7c-9,0-9.2,0.1-9.2,5.1v10.5H493.9z"/>
<path class="st0" d="M530.7,226.9c0-8.2-8-5.6-8-8.2c0-0.8,0.8-1.1,1.6-1.1c3.4,0,4,0.3,8.7,0.3c4.9,0,10-0.3,15-0.3
	c16.2,0,17.7,10.4,17.7,13.8c0.1,3.6-1.5,7-4.3,9.2c-2.1,1.7-4.3,2.4-4.3,3.1c0,0.4,6.3,11.1,11.7,20.4c0.6,0.9,1.6,1.3,2.7,1.2
	c0.8,0,1.5-0.4,2.2-0.4c0.6,0,1,0.4,1.1,0.9c0,0,0,0.1,0,0.1c0,2.2-4.9,4-7.8,4c-5.9,0-8.2-4.7-10.5-9l-6.2-11.7c-1.7-3.2-3-4-6.7-4
	c-4,0-3.4,0.5-3.4,3.1v12.8c0,7.9,7.3,4.9,7.3,7.6c0,0.6-0.6,1.1-2.2,1.1c-1.3,0-3.2-0.3-6.3-0.3c-4,0-7.7,0.3-11.3,0.3
	c-0.8,0-2.3,0.2-2.3-1.3c0-2.4,6,0.1,6-9.2v-32.6H530.7z M539.8,240.1c0,1.8,2.8,1.8,4.9,1.8c11.2,0,11.7-4.2,11.7-8.5
	c0-7.3-4.2-12.7-11.7-12.7c-2.8,0-5,0-5,4.4L539.8,240.1L539.8,240.1z"/>
<path class="st0" d="M578,254.7c-0.2-1.1-1-3.2,0.8-3.2c1.2,0,1.4,0.6,1.6,1.6c2.3,7.1,7,13.8,15.2,13.8c5.8,0,10.2-3.5,10.2-9.4
	c0-6.3-4.7-7.3-16.6-12.5c-6.3-2.8-10.7-5.7-10.7-13.5c0-8.5,5.9-14.8,14.5-14.8c6.1,0,9.2,2.9,11.3,2.9c1,0,2.8-1.2,3.8-1.2
	s0.8,1.1,1.1,2.8l0.8,10c0.1,1.6-0.1,2.5-1.7,2.5s-2.8-13.8-15.5-13.8c-4.9,0-8.2,2.8-8.2,7.8s4.1,5.9,14,10.3
	c7.9,3.4,12.8,6.6,12.8,16c0,9.7-6.8,16.3-16.5,16.3c-4.5,0-8.2-1.8-12.5-2.8c-1.8-0.4-1.8-1.1-2.1-2.8L578,254.7z"/>
<path class="st0" d="M634.1,260.7c0,9.1,8.2,5.7,8.2,8c0,0.9-0.6,1.1-2.3,1.1c-2.8,0-5.5-0.3-11.2-0.3c-3.2,0-6.3,0.3-8.2,0.3
	c-0.5,0-0.8-0.4-0.9-0.8c0,0,0,0,0,0c0-2.6,5.3-0.6,5.3-7.7v-35.4c0-6.7-8.3-4.7-8.3-7.3c0-1.3,1.8-1.1,2.5-1.1
	c2.9,0,5.8,0.3,8.3,0.3s5.3-0.3,9.5-0.3c2.2,0,2.6,0.1,2.6,1.1c0,2.5-5.6-0.1-5.6,6.9L634.1,260.7L634.1,260.7z"/>
<path class="st0" d="M666.1,225.9c0-3.5-0.8-4-3.7-4h-6.2c-8.3,0-6.1,9.7-9.4,9.7c-1.6,0-1.1-1.6-1-2.6l1.2-9.7
	c0.1-0.8,0.1-1.8,1.2-1.8c6.8,0,11.9,0.3,22.7,0.3s15.7-0.3,22.6-0.3c1.1,0,1.1,1.1,1.2,1.8l0.9,6.8c0.1,0.9,1,3.8-1,3.8
	c-3,0-0.6-8.2-9.1-7.9H679c-3,0-3.8,0.3-3.8,4v33.4c0,9.1,9.4,7,9.4,9c0,1.8-1.5,1.5-3.6,1.5c-3,0-5.3-0.3-10.4-0.3
	s-7.4,0.3-10.4,0.3c-1.3,0-2.6,0.1-2.6-1.5c0-2.9,8.3,0.6,8.3-8.1L666.1,225.9L666.1,225.9z"/>
<path class="st0" d="M705.5,224.3c-2.9-5.4-7.4-3.4-7.4-5.9c0-0.9,0.9-0.9,2.6-0.9c1.3,0,3.1,0.3,6.8,0.3c3.1,0,6.3,0,10.8-0.3
	c1.1-0.1,1.3,0.5,1.3,1c0,1.7-4.1,1.1-4.1,3.6c0.1,1.2,0.4,2.4,1.1,3.4l6.6,13.8c1.2,2.5,1.7,3.4,2.2,3.4s1-0.6,1.8-2.2l6.7-12.2
	c1.4-2.5,1.3-3.5,1.3-4.1c0-4.9-7.2-3.2-7.2-5.6c0-0.8,0.5-1.1,1.4-1.1s2.5,0.3,6.3,0.3c5.7,0,6.4-0.3,8.5-0.3c1,0,1.4,0.3,1.4,0.9
	c0,2-3.3,0.5-7.7,8.7l-9.7,18.3c-0.8,1.5-1,2-1,4.7v11c0,9.3,9.1,4.2,9.1,8c0,0.9-1.1,0.9-2.3,0.9c-3.7-0.3-7.3-0.4-11-0.3
	c-6.6,0-8.8,0.3-10.9,0.3c-1.2,0-2-0.1-2-0.9c0-3.3,8,0.8,8-8.7V251c0.1-1.7-0.3-3.3-1.2-4.7L705.5,224.3z"/>
<path class="st0" d="M777.2,256.8c0,6.3-3.8,13-10.9,13s-8.8-5.8-8.8-9.5c-0.2-6.4,4.8-11.8,11.2-12c0,0,0,0,0,0
	C773.9,248.4,777.2,251.8,777.2,256.8 M766.3,268.2c5.5,0,5.5-11.5,5.5-13.4c0-2.5-0.3-5-3.4-5c-4.8,0-5.2,10.1-5.2,13.4
	C763.1,265,763.2,268.2,766.3,268.2"/>
<path class="st0" d="M793.2,249c1,0,1,0.4,1,1.3s0,1.2-1,1.2h-5.1l-2.2,18.3c-1.2,9.4-6.1,8.9-6.6,8.9c-0.8,0-2.6-1-2.6-3.6
	c0-1.1,1.1-0.5,2-1.1c2-1.2,2.2-4.2,2.6-7.1l1.8-15.4h-3.6c-1,0-1-0.5-1-1.2c0-0.9,0-1.3,1-1.3h4c0.9-7.8,4.3-15.2,10.4-15.2
	c1,0,2.6,0.2,2.6,2c0,1.4-0.5,3.3-1.9,3.3s-2.1-2.2-4-2.2s-1.6,3.3-2,12.1L793.2,249z"/>
<path class="st0" d="M103.5,282.4H76.2l18.4-2.8c0.7-17.9,7.9-34.9,20.3-47.8l4,5.3l1.5,2c-9.9,10.7-15.8,24.5-16.7,39.1l27.7-4.3
	l-22.8-16L138,263l6,8.2c-1.6,3.5-2.4,7.3-2.4,11.1H103.5z M186.2,263.9c2.4,2.3,4.3,5.1,5.6,8.1L204,274l22.8-16l-29.4,5.1l17.5-24
	c9.9,10.7,15.8,24.6,16.7,39.2l9,1.4c-0.7-17.9-7.9-34.9-20.3-47.8l5.5-7.5L186.2,263.9z M119.2,233.9l3.1,3.1l26.8,26.9l0,0
	c2.4-2.3,5.1-4.2,8.1-5.6l1.9-12.3l-16-22.8l5.1,29.4l-24-17.5c10.7-9.9,24.5-15.8,39-16.8l1.4-9c-17.9,0.7-34.9,7.9-47.8,20.3
	l-7.5-5.5L119.2,233.9z M187,252.8l5.1-29.4l-16,22.8l-4.3-27.7c14.6,1,28.4,6.9,39.1,16.7l1.9-1.5l5.4-4
	c-12.9-12.5-29.9-19.7-47.8-20.3l-2.8-18.4v65.4c3.8,0,7.6,0.8,11.1,2.5L187,252.8z M149.2,300.9c-2.4-2.3-4.2-5.1-5.6-8.1
	l-12.3-1.9l-22.8,16l29.4-5.1l-17.5,24c-9.9-10.8-15.8-24.6-16.8-39.2l-9-1.4c0.7,17.9,7.9,34.9,20.3,47.8l-5.5,7.5L149.2,300.9z
	 M193.8,282.4c0,3.8-0.9,7.6-2.5,11.1l6,8.2l29.4,5.1l-22.8-16l27.7-4.3c-0.9,14.5-6.8,28.3-16.7,39l1.5,2l4,5.3
	c12.5-12.9,19.7-29.9,20.3-47.8l18.4-2.8L193.8,282.4L193.8,282.4z M186.2,300.9L186.2,300.9c-2.3,2.4-5.1,4.3-8.1,5.6l-1.9,12.3
	l16,22.8l-5.1-29.4l24,17.6c-10.7,9.9-24.6,15.8-39.1,16.7l-1.4,9c17.9-0.7,34.9-7.9,47.8-20.3l7.5,5.5L186.2,300.9z M148.3,312
	l-5.1,29.4l16-22.8l4.3,27.7c-14.6-1-28.4-6.9-39.2-16.7l-1.9,1.5l-5.4,4c12.9,12.5,29.9,19.7,47.8,20.3l2.8,18.4v-65.4
	c-3.8,0-7.6-0.9-11.1-2.5L148.3,312z"/>
<rect x="166.9" y="292.5" class="st0" width="1.4" height="11.3"/>
<rect x="156" y="296.2" transform="matrix(0.3827 -0.9239 0.9239 0.3827 -174.4613 332.6505)" class="st0" width="11.3" height="1.4"/>
<rect x="150.9" y="292.8" transform="matrix(0.7071 -0.7071 0.7071 0.7071 -161.6879 196.6661)" class="st0" width="11.3" height="1.4"/>
<rect x="147.5" y="287.6" transform="matrix(0.9239 -0.3827 0.3827 0.9239 -98.6822 80.5784)" class="st0" width="11.3" height="1.4"/>
<rect x="146.3" y="281.7" class="st0" width="11.3" height="1.4"/>
<rect x="152.5" y="270.7" transform="matrix(0.3827 -0.9239 0.9239 0.3827 -160.7916 312.1745)" class="st0" width="1.4" height="11.3"/>
<rect x="155.9" y="265.6" transform="matrix(0.7071 -0.7071 0.7071 0.7071 -145.9614 190.1728)" class="st0" width="1.4" height="11.3"/>
<rect x="161" y="262.3" transform="matrix(0.9239 -0.3827 0.3827 0.9239 -90.2484 82.2635)" class="st0" width="1.4" height="11.3"/>
<rect x="166.9" y="261" class="st0" width="1.4" height="11.3"/>
<rect x="168" y="267.2" transform="matrix(0.3827 -0.9239 0.9239 0.3827 -140.3042 325.849)" class="st0" width="11.3" height="1.4"/>
<rect x="173.1" y="270.6" transform="matrix(0.7071 -0.7071 0.7071 0.7071 -139.4681 205.8993)" class="st0" width="11.3" height="1.4"/>
<rect x="176.5" y="275.7" transform="matrix(0.9239 -0.3827 0.3827 0.9239 -91.8841 90.7647)" class="st0" width="11.3" height="1.4"/>
<rect x="177.7" y="281.7" class="st0" width="11.3" height="1.4"/>
<rect x="181.5" y="282.7" transform="matrix(0.3827 -0.9239 0.9239 0.3827 -153.9771 346.3404)" class="st0" width="1.4" height="11.3"/>
<rect x="178.1" y="287.9" transform="matrix(0.7071 -0.7071 0.7071 0.7071 -155.1946 212.3926)" class="st0" width="1.4" height="11.3"/>
<rect x="172.9" y="291.2" transform="matrix(0.9239 -0.3827 0.3827 0.9239 -100.3979 89.0323)" class="st0" width="1.4" height="11.3"/>
</svg>
