<svg xmlns="http://www.w3.org/2000/svg" height="800" width="1200" viewBox="-74.9997 -54.01275 649.9974 324.0765"><path d="M166.357 45.372l-50.924 85.802v57.718c5.862 13.888 20.678 15.738 34.877 16.357v8.024H50.617v-8.024c14.198-.619 31.482-2.777 36.111-12.035v-59.571L34.876 45.988C25.927 31.173 17.285 26.237 0 25.001v-8.024h86.729v8.024c-16.359.925-21.605 4.014-26.234 7.719l48.148 83.33 47.222-83.024c-4.938-3.703-11.419-7.1-27.777-8.024v-8.024h74.073v8.024c-16.667.618-27.161 6.171-35.804 20.37zm101.234 170.679c-16.665 0-24.691-11.421-25.308-19.443-10.495 11.11-24.073 19.443-37.036 19.443-16.667 0-30.866-10.186-30.866-27.775 0-8.645 2.161-17.596 6.483-24.693l61.419-22.223v-22.84c0-13.888-6.482-27.16-20.371-27.16-8.333 0-16.358 10.183-16.974 25.926l-27.78 4.627v-3.083c9.259-27.781 39.816-38.581 54.629-38.581 28.087 0 38.272 14.813 37.964 37.653l-.925 64.814c-.309 12.655 6.48 15.741 12.654 15.741 4.937 0 9.875-3.086 15.741-8.949v8.949c-6.789 8.027-18.825 17.594-29.63 17.594zm-61.727-50.308c-1.235 4.937-2.16 9.258-2.16 16.049 0 9.258 5.247 18.516 15.431 18.516 9.259 0 14.506-3.083 22.84-9.566l.308-41.669c-8.024 3.704-27.776 12.349-36.419 16.67zM300 213.273v-7.1c13.888-.925 17.898-4.011 20.371-9.261V37.036c0-10.494-1.545-14.813-22.841-16.666v-6.172L354.013 0l1.85 5.25-8.949 11.11v180.553c3.086 6.175 8.949 8.336 21.604 9.261v7.1H300zm142.59 2.469c-32.406 0-57.407-25.617-57.407-61.42 0-43.828 26.854-73.767 64.817-73.767 30.554 0 47.53 17.288 47.53 44.755v5.555l-83.333-.616c-.616 3.394-.928 8.952-.928 15.74 0 31.481 19.754 52.16 45.991 52.16 15.738 0 23.765-5.556 36.108-16.049l4.63 7.097c-17.591 16.052-32.098 26.545-57.408 26.545zm2.781-125.616c-15.435 0-26.234 12.344-29.939 31.787l54.324-.616c-.001-16.358-10.189-31.171-24.385-31.171z" fill="#00356B"/></svg>